<svg width="45" height="46" viewBox="0 0 45 46" fill="none" xmlns="http://www.w3.org/2000/svg">
<g filter="url(#filter0_d_576_118)">
<path d="M14.5 2C7.87305 2 2.5 7.78242 2.5 14.9096C2.5 22.041 7.87305 27.8193 14.5 27.8193C21.127 27.8193 26.5 22.041 26.5 14.9096C26.5 7.78242 21.127 2 14.5 2ZM14.5 7.72605C15.6224 7.72605 16.5323 8.70489 16.5323 9.91236C16.5323 11.1198 15.6224 12.0987 14.5 12.0987C13.3776 12.0987 12.4677 11.1198 12.4677 9.91236C12.4677 8.70489 13.3776 7.72605 14.5 7.72605ZM17.2097 20.948C17.2097 21.293 16.9497 21.5727 16.629 21.5727H12.371C12.0503 21.5727 11.7903 21.293 11.7903 20.948V19.6987C11.7903 19.3537 12.0503 19.074 12.371 19.074H12.9516V15.7425H12.371C12.0503 15.7425 11.7903 15.4628 11.7903 15.1179V13.8685C11.7903 13.5236 12.0503 13.2439 12.371 13.2439H15.4677C15.7884 13.2439 16.0484 13.5236 16.0484 13.8685V19.074H16.629C16.9497 19.074 17.2097 19.3537 17.2097 19.6987V20.948Z" fill="#F4FDD5"/>
</g>
<defs>
<filter id="filter0_d_576_118" x="0.5" y="0" width="44" height="45.8193" filterUnits="userSpaceOnUse" color-interpolation-filters="sRGB">
<feFlood flood-opacity="0" result="BackgroundImageFix"/>
<feColorMatrix in="SourceAlpha" type="matrix" values="0 0 0 0 0 0 0 0 0 0 0 0 0 0 0 0 0 0 127 0" result="hardAlpha"/>
<feOffset dx="8" dy="8"/>
<feGaussianBlur stdDeviation="5"/>
<feComposite in2="hardAlpha" operator="out"/>
<feColorMatrix type="matrix" values="0 0 0 0 0 0 0 0 0 0 0 0 0 0 0 0 0 0 0.1 0"/>
<feBlend mode="normal" in2="BackgroundImageFix" result="effect1_dropShadow_576_118"/>
<feBlend mode="normal" in="SourceGraphic" in2="effect1_dropShadow_576_118" result="shape"/>
</filter>
</defs>
</svg>
