<svg width="33" height="33" viewBox="0 0 33 33" fill="none" xmlns="http://www.w3.org/2000/svg">
<path d="M16.5344 8.45672C12.0725 8.45672 8.47353 12.101 8.47353 16.619C8.47353 21.137 12.0725 24.7812 16.5344 24.7812C20.9963 24.7812 24.5953 21.137 24.5953 16.619C24.5953 12.101 20.9963 8.45672 16.5344 8.45672ZM16.5344 21.9255C13.651 21.9255 11.2938 19.5457 11.2938 16.619C11.2938 13.6922 13.644 11.3124 16.5344 11.3124C19.4248 11.3124 21.7751 13.6922 21.7751 16.619C21.7751 19.5457 19.4178 21.9255 16.5344 21.9255ZM26.8052 8.12284C26.8052 9.18131 25.9634 10.0267 24.9251 10.0267C23.8797 10.0267 23.0449 9.1742 23.0449 8.12284C23.0449 7.07148 23.8868 6.21903 24.9251 6.21903C25.9634 6.21903 26.8052 7.07148 26.8052 8.12284ZM32.1441 10.0551C32.0248 7.50481 31.4496 5.24581 29.6045 3.38462C27.7664 1.52343 25.5354 0.940924 23.0168 0.813056C20.4211 0.663877 12.6408 0.663877 10.045 0.813056C7.53344 0.933821 5.30248 1.51633 3.45739 3.37752C1.61229 5.23871 1.04403 7.49771 0.917746 10.048C0.770419 12.6764 0.770419 20.5545 0.917746 23.1828C1.03701 25.7331 1.61229 27.9921 3.45739 29.8533C5.30248 31.7145 7.52642 32.297 10.045 32.4249C12.6408 32.574 20.4211 32.574 23.0168 32.4249C25.5354 32.3041 27.7664 31.7216 29.6045 29.8533C31.4425 27.9921 32.0178 25.7331 32.1441 23.1828C32.2914 20.5545 32.2914 12.6835 32.1441 10.0551ZM28.7906 26.003C28.2434 27.3954 27.1841 28.4681 25.802 29.0293C23.7324 29.8604 18.8215 29.6686 16.5344 29.6686C14.2473 29.6686 9.32943 29.8533 7.26685 29.0293C5.89179 28.4752 4.83244 27.4025 4.27821 26.003C3.45739 23.9074 3.64681 18.9348 3.64681 16.619C3.64681 14.3031 3.4644 9.32338 4.27821 7.23487C4.82543 5.84253 5.88478 4.76986 7.26685 4.20866C9.33644 3.37752 14.2473 3.56932 16.5344 3.56932C18.8215 3.56932 23.7394 3.38462 25.802 4.20866C27.1771 4.76276 28.2364 5.83543 28.7906 7.23487C29.6115 9.33048 29.4221 14.3031 29.4221 16.619C29.4221 18.9348 29.6115 23.9145 28.7906 26.003Z" fill="#C61E87"/>
</svg>
