<svg width="27" height="32" viewBox="0 0 27 32" fill="none" xmlns="http://www.w3.org/2000/svg">
<path d="M26.1703 13.1051C23.5977 13.1116 21.0883 12.2545 18.9965 10.6546V21.8124C18.9958 23.879 18.4046 25.8961 17.302 27.5939C16.1994 29.2918 14.6379 30.5896 12.8263 31.3137C11.0148 32.0378 9.03949 32.1537 7.1646 31.646C5.28971 31.1382 3.60459 30.031 2.33455 28.4724C1.06451 26.9138 0.270101 24.978 0.05754 22.924C-0.155021 20.87 0.224399 18.7955 1.14507 16.9781C2.06573 15.1607 3.48377 13.6869 5.20955 12.7538C6.93533 11.8207 8.88661 11.4728 10.8025 11.7565V17.3685C9.92576 17.0739 8.98435 17.0828 8.11265 17.3939C7.24096 17.705 6.48356 18.3025 5.94862 19.1009C5.41369 19.8994 5.12857 20.8581 5.13398 21.84C5.13939 22.8219 5.43506 23.7769 5.97877 24.5686C6.52247 25.3603 7.2864 25.9482 8.16146 26.2483C9.03653 26.5484 9.97798 26.5454 10.8514 26.2398C11.7248 25.9341 12.4854 25.3414 13.0247 24.5463C13.564 23.7512 13.8544 22.7944 13.8544 21.8124V0H18.9965C18.9929 0.463956 19.0293 0.92728 19.1052 1.38411C19.2838 2.40393 19.6554 3.37407 20.197 4.23521C20.7386 5.09635 21.439 5.83038 22.2553 6.3924C23.4166 7.21281 24.7781 7.65009 26.1703 7.64978V13.1051Z" fill="#C61E87"/>
</svg>
