<svg width="43" height="33" viewBox="0 0 43 33" fill="none" xmlns="http://www.w3.org/2000/svg">
<path d="M42.1168 5.93436C41.6306 3.97863 40.1983 2.43836 38.3797 1.91565C35.0833 0.96582 21.8653 0.96582 21.8653 0.96582C21.8653 0.96582 8.64735 0.96582 5.35091 1.91565C3.5323 2.43845 2.09999 3.97863 1.61385 5.93436C0.730591 9.47923 0.730591 16.8753 0.730591 16.8753C0.730591 16.8753 0.730591 24.2713 1.61385 27.8162C2.09999 29.7719 3.5323 31.248 5.35091 31.7707C8.64735 32.7206 21.8653 32.7206 21.8653 32.7206C21.8653 32.7206 35.0832 32.7206 38.3797 31.7707C40.1983 31.248 41.6306 29.7719 42.1168 27.8162C43 24.2713 43 16.8753 43 16.8753C43 16.8753 43 9.47923 42.1168 5.93436ZM17.5423 23.5903V10.1602L28.5899 16.8754L17.5423 23.5903Z" fill="#C61E87"/>
</svg>
